# xmcd
#
# Track frame offsets:
#	150
#	27042
#	47613
#	66029
#	84329
#	137745
#	160815
#	200771
#
# Disc length: 2891 seconds
#
# Revision: 0
# Processed by: cddbd v1.5.2PL0 Copyright (c) Steve Scherf et al.
# Submitted via: EZCDAudioConverter 4.0.5.1
#
DISCID=620b4908
DTITLE=Herman van Veen - Utrechtse Monologen
DYEAR=2007
DGENRE=Chanson
TTITLE0=Doelpunt
TTITLE1=Truus
TTITLE2=De Wielrenner
TTITLE3=De Werkeloze
TTITLE4=Ome Frans
TTITLE5=Jezus Jan
TTITLE6=Dacht Dat Je Dood Was
TTITLE7=Polderblues
EXTD=
EXTT0=
EXTT1=
EXTT2=
EXTT3=
EXTT4=
EXTT5=
EXTT6=
EXTT7=
PLAYORDER=
